<svg width="115" height="43" viewBox="0 0 115 43" fill="none" xmlns="http://www.w3.org/2000/svg">
<mask id="mask0_109_4333" style="mask-type:luminance" maskUnits="userSpaceOnUse" x="0" y="0" width="44" height="43">
<path d="M43.483 0H0V43H43.483V0Z" fill="white"/>
</mask>
<g mask="url(#mask0_109_4333)">
<path d="M11.5909 1.72656H41.8094V10.0646C41.8094 12.5669 39.8508 14.5907 37.4329 14.5909H12.975C10.3965 14.5909 8.32579 14.6016 4.38771 16.1627C3.35454 16.5723 2.44978 17.1541 1.67188 17.7968V11.9704C1.67188 6.31287 6.1128 1.72656 11.5909 1.72656Z" stroke="#209B2B" stroke-width="4"/>
<path d="M11.5909 22.6914H33.5051V30.2487C33.5051 32.6533 31.6173 34.6028 29.289 34.6028H14.5411C11.6111 34.603 9.23554 37.0561 9.23554 40.0821C9.23554 40.74 8.71911 41.2732 8.08216 41.2732H1.67188V32.9352C1.67188 27.2777 6.1128 22.6914 11.5909 22.6914Z" stroke="#AAED36" stroke-width="4"/>
</g>
<path d="M47.9199 6.33948C47.9199 2.83828 50.6648 0 54.0511 0H115V9.75946C115 13.2606 112.255 16.0989 108.869 16.0989H47.9199V6.33948Z"/>
<path d="M70.0113 4.45485H60.0098V7.44533H68.9399V9.99893H60.0098V13.6782H56.7949V4.45485C56.7949 4.45485 56.9466 3.0951 57.5234 2.49868C58.1006 1.90226 60.0098 1.91801 60.0098 1.91801H70.0113V4.45485ZM71.2714 1.91801L74.3257 1.91803V13.6782H71.2714V1.91801ZM87.3274 3.78285H90.3813V13.6782H87.3274V11.9478C85.8273 13.0566 83.7552 13.8462 81.2011 13.8462C78.3973 13.8462 75.7717 12.9054 75.7362 9.25975L75.7717 3.78285H78.8438V8.16773C78.8438 10.2677 79.594 11.3597 82.1123 11.3597C84.1662 11.3597 86.3807 10.3686 87.3274 9.32694V3.78285ZM91.3252 13.6782L97.2369 8.73891L91.3252 3.78285H95.4331L99.2905 7.05891L103.148 3.78285H107.256L101.327 8.73891L107.256 13.6782H103.148L99.2905 10.4022L95.4331 13.6782H91.3252Z" fill="black"/>
<path d="M64.9919 25.662H52.1031V31.1828H63.6111V35.8972H52.1031V42.6896H47.9601V25.662C47.9601 25.662 47.6834 23.3182 48.9887 22.0838C50.1826 20.9547 52.1031 20.9786 52.1031 20.9786H72.1536L64.9919 25.662ZM74.7424 42.9999C69.1264 42.9999 65.3517 40.2705 65.3517 33.571C65.3517 26.8406 69.1264 24.1112 74.7424 24.1112C80.3351 24.1112 84.1328 26.8406 84.1328 33.571C84.1328 40.2705 80.3351 42.9999 74.7424 42.9999ZM74.7424 38.5646C78.3788 38.5646 80.1742 37.355 80.1742 33.571C80.1742 29.7561 78.3788 28.5464 74.7424 28.5464C71.0827 28.5464 69.2873 29.7561 69.2873 33.571C69.2873 37.355 71.0827 38.5646 74.7424 38.5646ZM109.154 24.1112C112.192 24.1112 114.954 25.8481 115 32.4545L114.954 42.6896H111.018V34.5945C111.018 30.7176 110.534 28.7015 107.727 28.7015C105.655 28.7015 103.63 30.0352 102.433 31.493C102.456 31.8031 102.456 32.1133 102.456 32.4545L102.41 42.6896H98.4742V34.5945C98.4742 30.7176 97.9909 28.7015 95.1831 28.7015C92.9041 28.7015 90.6948 30.2833 89.567 31.9272V42.6896H85.6313V24.4213H89.567V27.3989C91.0401 25.817 93.2493 24.1112 96.6098 24.1112C98.6581 24.1112 100.592 24.9176 101.627 27.4609C103.377 25.693 105.793 24.1112 109.154 24.1112Z" fill="white"/>
</svg>
